<svg xmlns="http://www.w3.org/2000/svg" width="24" height="16" viewBox="0 0 24 16">
  <rect width="24" height="16" fill="#ffffff"/>
  <circle cx="12" cy="8" r="4" fill="#0047A0"/>
  <path d="M 8,8 A 4,4 0 0 1 16,8 A 2,2 0 0 0 12,8 A 2,2 0 0 1 8,8 Z" fill="#CD2E3A"/>
  <g transform="translate(5.9,4.1) rotate(-45)">
  <line x1="-1.4" y1="-0.95" x2="1.4" y2="-0.95" stroke="#000000" stroke-width="0.5"/>
  <line x1="-1.4" y1="0.00" x2="1.4" y2="0.00" stroke="#000000" stroke-width="0.5"/>
  <line x1="-1.4" y1="0.95" x2="-0.3" y2="0.95" stroke="#000000" stroke-width="0.5"/>
  <line x1="0.3" y1="0.95" x2="1.4" y2="0.95" stroke="#000000" stroke-width="0.5"/>
  </g>
  <g transform="translate(18.1,4.1) rotate(45)">
  <line x1="-1.4" y1="-0.95" x2="1.4" y2="-0.95" stroke="#000000" stroke-width="0.5"/>
  <line x1="-1.4" y1="0.00" x2="1.4" y2="0.00" stroke="#000000" stroke-width="0.5"/>
  <line x1="-1.4" y1="0.95" x2="-0.3" y2="0.95" stroke="#000000" stroke-width="0.5"/>
  <line x1="0.3" y1="0.95" x2="1.4" y2="0.95" stroke="#000000" stroke-width="0.5"/>
  </g>
  <g transform="translate(5.9,11.9) rotate(45)">
  <line x1="-1.4" y1="-0.95" x2="1.4" y2="-0.95" stroke="#000000" stroke-width="0.5"/>
  <line x1="-1.4" y1="0.00" x2="1.4" y2="0.00" stroke="#000000" stroke-width="0.5"/>
  <line x1="-1.4" y1="0.95" x2="-0.3" y2="0.95" stroke="#000000" stroke-width="0.5"/>
  <line x1="0.3" y1="0.95" x2="1.4" y2="0.95" stroke="#000000" stroke-width="0.5"/>
  </g>
  <g transform="translate(18.1,11.9) rotate(-45)">
  <line x1="-1.4" y1="-0.95" x2="1.4" y2="-0.95" stroke="#000000" stroke-width="0.5"/>
  <line x1="-1.4" y1="0.00" x2="1.4" y2="0.00" stroke="#000000" stroke-width="0.5"/>
  <line x1="-1.4" y1="0.95" x2="-0.3" y2="0.95" stroke="#000000" stroke-width="0.5"/>
  <line x1="0.3" y1="0.95" x2="1.4" y2="0.95" stroke="#000000" stroke-width="0.5"/>
  </g>
  <rect x="0.2" y="0.2" width="23.60" height="15.60" fill="none" stroke="#a9b0bd" stroke-width="0.4"/>
</svg>
